<svg width="41" height="32" viewBox="0 0 41 32" fill="none" xmlns="http://www.w3.org/2000/svg">
<path d="M36.5893 0H5.16071C4.02407 0 2.93398 0.459739 2.13026 1.27808C1.32653 2.09642 0.875 3.20633 0.875 4.36364V27.6364C0.875 28.7937 1.32653 29.9036 2.13026 30.7219C2.93398 31.5403 4.02407 32 5.16071 32H36.5893C37.7259 32 38.816 31.5403 39.6197 30.7219C40.4235 29.9036 40.875 28.7937 40.875 27.6364V4.36364C40.875 3.20633 40.4235 2.09642 39.6197 1.27808C38.816 0.459739 37.7259 0 36.5893 0ZM29.975 2.90909L20.875 11.1418L11.775 2.90909H29.975ZM32.3036 29.0909H9.44643V12.4945L19.9321 21.8182C20.1928 22.0514 20.528 22.18 20.875 22.18C21.222 22.18 21.5572 22.0514 21.8179 21.8182L32.3036 12.4945V29.0909ZM38.0179 27.6364C38.0179 28.0221 37.8673 28.3921 37.5994 28.6649C37.3315 28.9377 36.9682 29.0909 36.5893 29.0909H35.1607V9.28C35.1604 9.00047 35.0809 8.72696 34.9319 8.49221C34.7828 8.25745 34.5705 8.0714 34.3203 7.95631C34.0701 7.84122 33.7927 7.80196 33.5212 7.84325C33.2496 7.88453 32.9955 8.0046 32.7893 8.18909L20.875 18.7927L8.96071 8.18909C8.75446 8.0046 8.50037 7.88453 8.22884 7.84325C7.95731 7.80196 7.67985 7.84122 7.42967 7.95631C7.17948 8.0714 6.96716 8.25745 6.81812 8.49221C6.66908 8.72696 6.58963 9.00047 6.58929 9.28V29.0909H5.16071C4.78183 29.0909 4.41847 28.9377 4.15056 28.6649C3.88265 28.3921 3.73214 28.0221 3.73214 27.6364V4.36364C3.73214 3.97787 3.88265 3.6079 4.15056 3.33512C4.41847 3.06234 4.78183 2.90909 5.16071 2.90909H7.475L19.9321 14.1818C20.1928 14.415 20.528 14.5436 20.875 14.5436C21.222 14.5436 21.5572 14.415 21.8179 14.1818L34.275 2.90909H36.5893C36.9682 2.90909 37.3315 3.06234 37.5994 3.33512C37.8673 3.6079 38.0179 3.97787 38.0179 4.36364V27.6364Z" fill="#7C2E19"/>
</svg>
