<svg width="41" height="41" viewBox="0 0 41 41" fill="none" xmlns="http://www.w3.org/2000/svg">
<path d="M20.7584 10.491C15.1132 10.491 10.4358 15.0877 10.4358 20.8135C10.4358 26.5394 15.0326 31.1361 20.7584 31.1361C26.4842 31.1361 31.081 26.4587 31.081 20.8135C31.081 15.1684 26.4035 10.491 20.7584 10.491ZM20.7584 27.4264C17.1293 27.4264 14.1455 24.4426 14.1455 20.8135C14.1455 17.1845 17.1293 14.2006 20.7584 14.2006C24.3874 14.2006 27.3713 17.1845 27.3713 20.8135C27.3713 24.4426 24.3874 27.4264 20.7584 27.4264Z" fill="#7C2E19"/>
<path d="M31.4842 12.5878C32.7758 12.5878 33.8229 11.5407 33.8229 10.2491C33.8229 8.95748 32.7758 7.9104 31.4842 7.9104C30.1925 7.9104 29.1455 8.95748 29.1455 10.2491C29.1455 11.5407 30.1925 12.5878 31.4842 12.5878Z" fill="#7C2E19"/>
<path d="M37.5326 4.20074C35.4358 2.02332 32.4519 0.894287 29.0648 0.894287H12.4519C5.4358 0.894287 0.758377 5.57171 0.758377 12.5878V29.1201C0.758377 32.5878 1.88741 35.5717 4.14547 37.7491C6.32289 39.8459 9.22612 40.8943 12.5326 40.8943H28.9842C32.4519 40.8943 35.3552 39.7653 37.4519 37.7491C39.6293 35.6523 40.7584 32.6685 40.7584 29.2007V12.5878C40.7584 9.20074 39.6293 6.29751 37.5326 4.20074ZM37.21 29.2007C37.21 31.7007 36.3229 33.7169 34.8713 35.0878C33.4197 36.4588 31.4035 37.1846 28.9842 37.1846H12.5326C10.1132 37.1846 8.09709 36.4588 6.64547 35.0878C5.19386 33.6362 4.46805 31.6201 4.46805 29.1201V12.5878C4.46805 10.1685 5.19386 8.15235 6.64547 6.70074C8.01644 5.32977 10.1132 4.60396 12.5326 4.60396H29.1455C31.5648 4.60396 33.581 5.32977 35.0326 6.78138C36.4035 8.233 37.21 10.2491 37.21 12.5878V29.2007Z" fill="#7C2E19"/>
</svg>
