<svg width="41" height="41" viewBox="0 0 41 41" fill="none" xmlns="http://www.w3.org/2000/svg">
<path fill-rule="evenodd" clip-rule="evenodd" d="M34.5082 6.64396C30.7479 2.8974 25.7474 0.833227 20.4197 0.831055C9.44209 0.831055 0.507492 9.72223 0.503207 20.6507C0.501671 24.1442 1.41878 27.5541 3.16172 30.5599L0.336182 40.8311L10.8942 38.0748C13.8031 39.6539 17.0784 40.4862 20.4117 40.4873H20.4198C20.4205 40.4873 20.4193 40.4873 20.42 40.4873C31.3964 40.4873 40.3316 31.5953 40.3362 20.6666C40.3381 15.3703 38.2684 10.3904 34.5082 6.64396ZM20.4197 37.1398H20.413C17.4428 37.1387 14.5294 36.3444 11.9877 34.8435L11.3833 34.4865L5.11809 36.122L6.79045 30.0427L6.39682 29.4193C4.73982 26.7964 3.86467 23.7647 3.86596 20.6518C3.86952 11.5685 11.2956 4.1787 20.4264 4.1787C24.8479 4.18007 29.0042 5.89601 32.1296 9.01001C35.2549 12.124 36.9751 16.2632 36.9733 20.6652C36.9696 29.7492 29.5438 37.1398 20.4197 37.1398Z" fill="#7C2E19"/>
<path fill-rule="evenodd" clip-rule="evenodd" d="M29.4998 24.8014C29.0022 24.5535 26.5555 23.3556 26.0994 23.1902C25.6432 23.0249 25.3114 22.9423 24.9797 23.438C24.648 23.9338 23.6943 25.0494 23.404 25.38C23.1137 25.7104 22.8233 25.752 22.3258 25.5038C21.8282 25.2559 20.2247 24.733 18.324 23.0457C16.8445 21.7324 15.8458 20.1107 15.5555 19.6147C15.2652 19.119 15.5246 18.851 15.7737 18.604C15.9976 18.382 16.2714 18.0256 16.5203 17.7363C16.769 17.4472 16.852 17.2405 17.0179 16.9102C17.1838 16.5796 17.1009 16.2903 16.9764 16.0425C16.852 15.7946 15.8568 13.3569 15.4421 12.3651C15.038 11.3995 14.6278 11.5303 14.3223 11.5149C14.0325 11.5005 13.7003 11.4976 13.3686 11.4976C13.0369 11.4976 12.4976 11.6215 12.0416 12.1173C11.5855 12.6131 10.2998 13.8114 10.2998 16.2489C10.2998 18.6867 12.083 21.0417 12.3318 21.3722C12.5806 21.7029 15.8409 26.7052 20.8329 28.8504C22.0202 29.3608 22.9472 29.6655 23.6699 29.8937C24.862 30.2707 25.9469 30.2174 26.8043 30.0899C27.7605 29.9477 29.7486 28.8919 30.1633 27.7351C30.578 26.5781 30.578 25.5864 30.4535 25.3799C30.3292 25.1734 29.9974 25.0494 29.4998 24.8014Z" fill="#7C2E19"/>
</svg>
